<svg id="Layer_1" data-name="Layer 1" xmlns="http://www.w3.org/2000/svg" viewBox="0 0 189.59 54.44"><defs><style>.cls-1{fill:#1d1d1b;}</style></defs><title>Syddjurs_logo_BW</title><path class="cls-1" d="M23.1,54.29a1.78,1.78,0,0,1-1.44,0C-6.31,41.91.78,3.39,0.86,3A1.78,1.78,0,0,1,2.35,1.58,157.06,157.06,0,0,1,22.38,0a157,157,0,0,1,20,1.58A1.78,1.78,0,0,1,43.91,3C44,3.39,51.08,41.91,23.1,54.29M22.38,32.81a7.6,7.6,0,1,0,0-15.2,4,4,0,1,1,0-8.06h0a4,4,0,0,1,4,4,1.79,1.79,0,0,0,3.57,0,7.6,7.6,0,0,0-15.2-.08s0,0.05,0,.08h0a7.61,7.61,0,0,0,7.6,7.6,4,4,0,1,1,0,8.06,7.6,7.6,0,1,0,7.6,7.6,1.79,1.79,0,0,0-3.57,0,4,4,0,1,1-4-4m0-17.41a1.91,1.91,0,1,0-1.91-1.91,1.91,1.91,0,0,0,1.91,1.91m0,11.63a1.91,1.91,0,1,0-1.91-1.91A1.91,1.91,0,0,0,22.38,27m-10,0a1.91,1.91,0,1,0-1.91-1.91A1.91,1.91,0,0,0,12.37,27m10,11.63a1.91,1.91,0,1,0-1.91-1.91,1.91,1.91,0,0,0,1.91,1.91" transform="translate(0)"/><path class="cls-1" d="M132.39,40.41a0.68,0.68,0,0,1,.71-0.7,0.67,0.67,0,0,1,.71.7v2L136.12,40a0.74,0.74,0,0,1,.55-0.26,0.69,0.69,0,0,1,.7.68,1.14,1.14,0,0,1-.46.75l-1.78,1.75,2.18,2.27a1,1,0,0,1,.4.72,0.66,0.66,0,0,1-.73.65,1,1,0,0,1-.72-0.44l-2.44-2.64v2.4a0.68,0.68,0,0,1-.71.68,0.66,0.66,0,0,1-.71-0.68V40.41Z" transform="translate(0)"/><path class="cls-1" d="M139.77,43.12A3.25,3.25,0,0,1,143,39.66a3.3,3.3,0,0,1,3.24,3.47,3.25,3.25,0,1,1-6.48,0m5,0a1.81,1.81,0,1,0-3.54,0c0,1.15.57,2.17,1.77,2.17a1.89,1.89,0,0,0,1.77-2.17" transform="translate(0)"/><path class="cls-1" d="M149.41,40.44a1,1,0,0,1,.92-0.73,1,1,0,0,1,.94.68l1.11,3.73h0l1.11-3.73a1,1,0,0,1,.94-0.68,1,1,0,0,1,.92.73l0.88,5.26a1,1,0,0,1,0,.16,0.71,0.71,0,0,1-1.41,0L154.3,42h0L153.15,46a0.79,0.79,0,0,1-1.51,0L150.51,42h0l-0.56,3.84a0.71,0.71,0,0,1-1.41,0,1,1,0,0,1,0-.16Z" transform="translate(0)"/><path class="cls-1" d="M159.68,40.44a1,1,0,0,1,.92-0.73,1,1,0,0,1,.94.68l1.11,3.73h0l1.11-3.73a1,1,0,0,1,.94-0.68,1,1,0,0,1,.92.73l0.88,5.26a1.13,1.13,0,0,1,0,.16,0.71,0.71,0,0,1-1.41,0L164.57,42h0L163.42,46a0.79,0.79,0,0,1-1.51,0L160.79,42h0l-0.56,3.84a0.71,0.71,0,0,1-1.41,0,1,1,0,0,1,0-.16Z" transform="translate(0)"/><path class="cls-1" d="M169,40.45a0.71,0.71,0,1,1,1.41,0v3.29a1.44,1.44,0,0,0,1.45,1.55,1.48,1.48,0,0,0,1.44-1.55V40.45a0.71,0.71,0,1,1,1.41,0v3.36a2.86,2.86,0,0,1-5.72,0V40.45Z" transform="translate(0)"/><path class="cls-1" d="M177.36,40.45a0.68,0.68,0,0,1,.71-0.74,0.88,0.88,0,0,1,.59.31l3,4h0V40.45a0.71,0.71,0,1,1,1.41,0V45.8a0.68,0.68,0,0,1-.71.74,0.9,0.9,0,0,1-.59-0.31l-3-3.94h0V45.8a0.71,0.71,0,1,1-1.41,0V40.45Z" transform="translate(0)"/><path class="cls-1" d="M185.76,40.59a0.72,0.72,0,0,1,.74-0.82h2.34a0.63,0.63,0,0,1,.67.65,0.64,0.64,0,0,1-.67.65h-1.66v1.38h1.55a0.64,0.64,0,0,1,.69.65,0.65,0.65,0,0,1-.69.65h-1.55v1.43h1.74a0.63,0.63,0,0,1,.67.65,0.64,0.64,0,0,1-.67.65h-2.43a0.69,0.69,0,0,1-.73-0.71V40.59Z" transform="translate(0)"/><path class="cls-1" d="M61.74,22.26c-2-.77-3.28-1.31-3.28-2.67a2.4,2.4,0,0,1,2.6-2.52c1.39,0,2.32.87,3.39,2a0.42,0.42,0,0,0,.61,0l1.85-1.85a0.42,0.42,0,0,0,0-.55,7.27,7.27,0,0,0-5.75-3c-3.79,0-6.33,2.37-6.33,5.89,0,4,3,5.06,5.36,5.88,2.13,0.74,3.43,1.27,3.43,2.89,0,2.43-1.68,2.94-3.08,2.94a4.18,4.18,0,0,1-3.31-2.07,0.42,0.42,0,0,0-.63-0.1l-2,1.68a0.42,0.42,0,0,0,0,.61c1.88,2,3.59,3.24,6.28,3.24a6.2,6.2,0,0,0,6.39-6.28c0-4-3.06-5.2-5.52-6.13" transform="translate(0)"/><path class="cls-1" d="M82.95,19.55a0.43,0.43,0,0,0-.29-0.23l-2.58-.56a0.42,0.42,0,0,0-.47.23l-3.78,7.94-4.07-8a0.42,0.42,0,0,0-.45-0.22l-2.64.45a0.42,0.42,0,0,0-.35.42,0.42,0.42,0,0,0,0,.19l5.49,11.14L70.62,37.7h0l-0.54,1.13a0.42,0.42,0,0,0,.28.59L72.93,40a0.42,0.42,0,0,0,.48-0.23l9-18.77h0L83,19.91a0.42,0.42,0,0,0,0-.37" transform="translate(0)"/><path class="cls-1" d="M99.15,13.66a0.42,0.42,0,0,0-.34-0.1L96.12,14a0.42,0.42,0,0,0-.35.42v5.93a7.83,7.83,0,0,0-4.57-1.62A7.6,7.6,0,0,0,85.73,21a7.86,7.86,0,0,0-2.22,5.69,7.93,7.93,0,0,0,7.68,8,6.91,6.91,0,0,0,4.74-1.83v1.29a0.42,0.42,0,0,0,.48.42l2.52-.34a0.42,0.42,0,0,0,.37-0.42V14a0.42,0.42,0,0,0-.15-0.32M91.42,31.3a4.59,4.59,0,0,1-4.37-4.56,4.46,4.46,0,0,1,4.26-4.62,4.5,4.5,0,0,1,4.79,4.62,4.38,4.38,0,0,1-4.68,4.56" transform="translate(0)"/><path class="cls-1" d="M118.1,13.66a0.42,0.42,0,0,0-.34-0.1l-2.69.45a0.42,0.42,0,0,0-.35.42v5.93a7.82,7.82,0,0,0-4.57-1.62A7.6,7.6,0,0,0,104.68,21a8.11,8.11,0,0,0,5.46,13.67,6.9,6.9,0,0,0,4.73-1.83v1.29a0.42,0.42,0,0,0,.48.42l2.52-.34a0.42,0.42,0,0,0,.37-0.42V14a0.42,0.42,0,0,0-.15-0.32M110.37,31.3A4.59,4.59,0,0,1,106,26.74a4.46,4.46,0,0,1,4.26-4.62A4.5,4.5,0,0,1,115,26.74a4.37,4.37,0,0,1-4.68,4.56" transform="translate(0)"/><path class="cls-1" d="M124.89,17.23a2.06,2.06,0,1,0-2.06-2.06,2.06,2.06,0,0,0,2.06,2.06" transform="translate(0)"/><path class="cls-1" d="M126.23,18.75l-2.69.45a0.42,0.42,0,0,0-.35.42V34.81c0,0.76-.29,1.76-2.77,1.76h-0.87a0.42,0.42,0,0,0-.39.58l1,2.44a0.38,0.38,0,0,0,.33.27l1.16,0.09c2.56-.06,5.13-1.59,5.13-4.85V19.17a0.42,0.42,0,0,0-.49-0.42" transform="translate(0)"/><path class="cls-1" d="M144.35,18.85a0.43,0.43,0,0,0-.34-0.1l-2.69.45a0.42,0.42,0,0,0-.35.42v7.9c0,2.46-1.34,3.92-3.59,3.92-1.8,0-2.71-.79-2.71-2.35V19.17a0.42,0.42,0,0,0-.15-0.32,0.43,0.43,0,0,0-.34-0.1l-2.69.45a0.42,0.42,0,0,0-.35.42v9.86c0,3.83,3.1,5.19,6,5.19A5.59,5.59,0,0,0,141,33.24v1a0.43,0.43,0,0,0,.15.32,0.42,0.42,0,0,0,.34.09l2.63-.45a0.42,0.42,0,0,0,.35-0.42V19.17a0.42,0.42,0,0,0-.15-0.32" transform="translate(0)"/><path class="cls-1" d="M157.92,18.88a0.42,0.42,0,0,0-.35-0.19h-1.34a4.78,4.78,0,0,0-4,2.1V19.17a0.42,0.42,0,0,0-.5-0.42l-2.52.45a0.42,0.42,0,0,0-.35.42V34.25a0.42,0.42,0,0,0,.49.42l2.69-.45a0.42,0.42,0,0,0,.35-0.42V27.1a5.28,5.28,0,0,1,1.39-4,3.46,3.46,0,0,1,2.65-.92,0.42,0.42,0,0,0,.41-0.26L158,19.28a0.42,0.42,0,0,0,0-.4" transform="translate(0)"/><path class="cls-1" d="M165.28,25c-1.56-.42-2.44-0.7-2.44-1.7,0-.36,0-1.32,1.76-1.32A3,3,0,0,1,167,23.22a0.42,0.42,0,0,0,.62,0l1.6-1.76a0.42,0.42,0,0,0,0-.58,6.2,6.2,0,0,0-4.89-2.11,4.85,4.85,0,0,0-5,4.91c0,3.21,2.37,3.85,4.28,4.36,1.72,0.46,2.7.78,2.7,2.06,0,1-1.17,1.37-2,1.37A3.24,3.24,0,0,1,161.67,30a0.42,0.42,0,0,0-.59,0l-1.85,1.57a0.42,0.42,0,0,0-.06.58,6.23,6.23,0,0,0,5.32,2.55,5,5,0,0,0,5.33-4.93c0-3.54-2.62-4.24-4.53-4.75" transform="translate(0)"/></svg>