<?xml version="1.0" encoding="utf-8"?><svg width="125" height="62" viewBox="0 0 125 62" xmlns="http://www.w3.org/2000/svg" xmlns:xlink="http://www.w3.org/1999/xlink"><view id="icon-arrow-down" viewBox="0 0 32 29.98"/><svg viewBox="0 0 98.2 92" width="32" height="29.98"><path d="M82.1 18.5h-66l33 55z"/></svg><view id="icon-burger-menu" viewBox="32 0 32 25.51"/><svg viewBox="0 0 154.9 123.5" width="32" height="25.51" x="32"><path d="M0 0h154.9v27H0zm0 48.3h154.9v27H0zm0 48.3h154.9v27H0z"/></svg><view id="icon-lock" viewBox="0 29.98 20.19 32"/><svg viewBox="0 0 47.9 75.9" width="20.19" height="32" y="29.98"><path d="M4.6 44.7V19.9C4.6 4.2 15.7 0 21.6 0h4.7c13.4 0 17 13 17 19.9V26h-5.9v-6.1c0-.6-.2-14.1-11.1-14.1h-4.7c-1.1 0-11.1.5-11.1 14.1v24.8"/><path d="M39.7 39.6c8.2 0 8.2 8.2 8.2 8.2v19.9c0 8.2-8.2 8.2-8.2 8.2H8.2C0 75.9 0 67.7 0 67.7V47.8c0-8.2 8.2-8.2 8.2-8.2h31.5zM28.3 52.4c0-2.4-2-4.4-4.4-4.4-2.4 0-4.4 2-4.4 4.4 0 1.8 1.1 3.3 2.6 4l-1.4 11.2h6.5l-1.4-11.2c1.5-.7 2.5-2.2 2.5-4z"/></svg><view id="icon-pin" viewBox="20.19 29.98 20.55 32"/><svg viewBox="0 0 39.5 61.5" width="20.55" height="32" x="20.19" y="29.98"><path d="M39.5 19.7c0 1.8-.3 3.5-.7 5.2l-19 36.6L.7 24.8c-.4-1.6-.7-3.3-.7-5C0 8.8 8.8 0 19.7 0c10.9 0 19.8 8.8 19.8 19.7M19.7 8.8C13.8 8.8 9 13.6 9 19.5c0 5.9 4.8 10.7 10.7 10.7 5.9 0 10.7-4.8 10.7-10.7.1-5.9-4.7-10.7-10.7-10.7"/></svg><view id="icon-play" viewBox="64 0 28.77 32"/><svg viewBox="0 0 54.3 60.4" width="28.77" height="32" x="64"><path d="M0 60.4l54.3-30.2L0 0"/></svg><view id="icon-search" viewBox="92.77 0 32 30.81"/><svg viewBox="0 0 91.2 87.8" width="32" height="30.81" x="92.77"><path d="M54.4 70.8c-20.3 0-36.8-15.9-36.8-35.4S34.1 0 54.4 0c20.3 0 36.8 15.9 36.8 35.4S74.7 70.8 54.4 70.8zm0-60.3c-14.5 0-26.3 11.2-26.3 24.9s11.8 24.9 26.3 24.9 26.3-11.2 26.3-24.9c0-13.8-11.8-24.9-26.3-24.9z"/><path d="M23.9 53.7L0 76.7l11.5 11.1 24-23z"/></svg></svg>