<?xml version="1.0" encoding="utf-8"?><svg xmlns="http://www.w3.org/2000/svg" xmlns:xlink="http://www.w3.org/1999/xlink"><symbol id="burger-menu" viewBox="0 0 39 22"><style>.ast0{fill:#b01917}</style><path class="ast0" d="M0 0h39v3.9H0z"/><path id="aRectangle_3_copy" class="ast0" d="M0 9.1h39V13H0z"/><path id="aRectangle_3_copy_2" class="ast0" d="M0 18.1h39V22H0z"/></symbol><symbol id="facebook-logo" viewBox="0 0 512 512"><defs><style>.bcls-1{fill:#fff}</style></defs><title>facebook-logo</title><path class="bcls-1" d="M416 0H96A96 96 0 0 0 0 96v320a96 96 0 0 0 96 96h320a96 96 0 0 0 96-96V96a96 96 0 0 0-96-96zm-13 275.73h-47.93V453h-80V275.73H244V216h31v-38c0-49.88 20.74-79.5 79.52-79.5h59.57V158h-34.6c-22.88 0-24.38 8.53-24.38 24.48l-.04 33.52h54.43z"/></symbol><symbol viewBox="0 0 98.2 92" id="icon-arrow-down"><path d="M82.1 18.5h-66l33 55z"/></symbol><symbol viewBox="0 0 154.9 123.5" id="icon-burger-menu"><path d="M0 0h154.9v27H0zm0 48.3h154.9v27H0zm0 48.3h154.9v27H0z"/></symbol><symbol viewBox="0 0 47.9 75.9" id="icon-lock"><path d="M4.6 44.7V19.9C4.6 4.2 15.7 0 21.6 0h4.7c13.4 0 17 13 17 19.9V26h-5.9v-6.1c0-.6-.2-14.1-11.1-14.1h-4.7c-1.1 0-11.1.5-11.1 14.1v24.8"/><path d="M39.7 39.6c8.2 0 8.2 8.2 8.2 8.2v19.9c0 8.2-8.2 8.2-8.2 8.2H8.2C0 75.9 0 67.7 0 67.7V47.8c0-8.2 8.2-8.2 8.2-8.2h31.5zM28.3 52.4c0-2.4-2-4.4-4.4-4.4-2.4 0-4.4 2-4.4 4.4 0 1.8 1.1 3.3 2.6 4l-1.4 11.2h6.5l-1.4-11.2c1.5-.7 2.5-2.2 2.5-4z"/></symbol><symbol viewBox="0 0 39.5 61.5" id="icon-pin"><path d="M39.5 19.7c0 1.8-.3 3.5-.7 5.2l-19 36.6L.7 24.8c-.4-1.6-.7-3.3-.7-5C0 8.8 8.8 0 19.7 0c10.9 0 19.8 8.8 19.8 19.7M19.7 8.8C13.8 8.8 9 13.6 9 19.5c0 5.9 4.8 10.7 10.7 10.7 5.9 0 10.7-4.8 10.7-10.7.1-5.9-4.7-10.7-10.7-10.7"/></symbol><symbol viewBox="0 0 54.3 60.4" id="icon-play"><path d="M0 60.4l54.3-30.2L0 0"/></symbol><symbol viewBox="0 0 91.2 87.8" id="icon-search"><path d="M54.4 70.8c-20.3 0-36.8-15.9-36.8-35.4S34.1 0 54.4 0c20.3 0 36.8 15.9 36.8 35.4S74.7 70.8 54.4 70.8zm0-60.3c-14.5 0-26.3 11.2-26.3 24.9s11.8 24.9 26.3 24.9 26.3-11.2 26.3-24.9c0-13.8-11.8-24.9-26.3-24.9z"/><path d="M23.9 53.7L0 76.7l11.5 11.1 24-23z"/></symbol><symbol id="instagram-logo" viewBox="0 0 511.99 512"><defs><style>.icls-1{fill:#fff}</style></defs><title>instagram-logo</title><path class="icls-1" d="M65.72 0h380.56C482.42 0 512 26.76 512 65.71v380.58c0 39-29.57 65.71-65.71 65.71H65.72C29.57 512 0 485.24 0 446.29V65.71C0 26.76 29.57 0 65.72 0zM373 56.89a23.11 23.11 0 0 0-23 23.05v55.17a23.11 23.11 0 0 0 23 23.05h57.87a23.12 23.12 0 0 0 23.05-23.05V79.94a23.11 23.11 0 0 0-23.05-23.05H373zm81.16 159.64h-45.09a149.75 149.75 0 0 1 6.57 43.92c0 85.16-71.26 154.2-159.15 154.2s-159.14-69-159.14-154.2a149.5 149.5 0 0 1 6.57-43.92h-47V432.8a20.42 20.42 0 0 0 20.35 20.35h356.52a20.41 20.41 0 0 0 20.35-20.35V216.52zm-197.68-61.28c-56.79 0-102.83 44.61-102.83 99.63s46 99.63 102.83 99.63 102.84-44.61 102.84-99.63-46.04-99.63-102.84-99.63z"/></symbol></svg>