<?xml version="1.0" encoding="utf-8"?>
<!-- Generator: Adobe Illustrator 19.2.1, SVG Export Plug-In . SVG Version: 6.00 Build 0)  -->
<svg version="1.1" id="Layer_1" xmlns="http://www.w3.org/2000/svg" xmlns:xlink="http://www.w3.org/1999/xlink" x="0px" y="0px"
	 viewBox="0 0 117 44.7" style="enable-background:new 0 0 117 44.7;" xml:space="preserve">
<style type="text/css">
	.st0{fill:#AE0F0A;}
</style>
<g>
	<path class="st0" d="M101.7,41.1h0.9c0.3,0,0.4-0.1,0.5-0.4l0.7-4.9c0.1-0.2,0.7-0.9,1.5-0.9c0.3,0,0.7,0.1,0.8,0.1
		c0.1,0.1,0.3,0.1,0.4-0.2l0.4-0.8c0.1-0.2,0.1-0.3,0-0.4c-0.2-0.2-0.6-0.2-1.1-0.2c-1.2,0-1.9,0.9-2.1,1.1l-0.1-0.7
		c0-0.1-0.2-0.3-0.3-0.3h-0.5c-0.2,0-0.3,0.2-0.4,0.4l-0.9,6.8C101.4,40.9,101.5,41.1,101.7,41.1 M95.6,36.5c0.2-1,1-1.8,2.1-1.8
		c0.6,0,1.1,0.3,1.1,0.8C98.8,36.6,96.9,36.7,95.6,36.5 M93.7,37.9c0,1.9,1,3.4,2.9,3.4c1.1,0,2.1-0.5,2.7-0.9
		c0.2-0.2,0.2-0.3,0.1-0.5l-0.5-0.6c-0.1-0.2-0.2-0.1-0.5,0c-0.5,0.4-1,0.6-1.6,0.6c-1,0-1.7-1-1.6-2c2.1,0.2,5-0.1,5-2.3
		c0-1.4-1.1-2.1-2.5-2.1C95.3,33.3,93.7,35.5,93.7,37.9 M90,41.1h1c0.2,0,0.3-0.2,0.4-0.4L92.8,30c0-0.2-0.1-0.4-0.3-0.4h-1
		c-0.2,0-0.4,0.2-0.4,0.4l-1.5,10.7C89.7,40.9,89.8,41.1,90,41.1 M85.9,41.1h1c0.2,0,0.3-0.2,0.4-0.4L88.8,30c0-0.2-0.1-0.4-0.3-0.4
		h-1c-0.2,0-0.4,0.2-0.4,0.4l-1.5,10.7C85.6,40.9,85.8,41.1,85.9,41.1 M75.3,38.8c0-0.9,0.7-1.4,1.5-1.4c0.7,0,1.1,0.1,1.1,0.1
		L77.8,39c-0.2,0.2-0.8,0.8-1.5,0.8C75.8,39.8,75.3,39.5,75.3,38.8 M79.8,36.5c0.2-1,1-1.8,2-1.8c0.7,0,1.1,0.3,1.1,0.8
		C83,36.6,81.1,36.6,79.8,36.5 M73.8,39.1c0,1.3,0.9,2.1,2.1,2.1c1.3,0,2.2-0.7,2.6-1.3c0.5,0.7,1.3,1.3,2.3,1.3
		c1.1,0,2.1-0.4,2.7-0.9c0.2-0.2,0.2-0.3,0.1-0.5l-0.4-0.7c-0.1-0.2-0.2-0.1-0.5,0c-0.3,0.2-1,0.5-1.6,0.5c-1,0-1.6-1-1.5-2
		c2.1,0.2,5.1-0.1,5.1-2.3c0-1.4-1.1-2.1-2.5-2.1c-1,0-1.9,0.5-2.6,1.1c-0.3-0.6-0.7-1.1-1.8-1.1c-1.1,0-2.4,0.4-2.4,0.4
		c-0.2,0-0.4,0.2-0.3,0.4l0.1,0.7c0,0.2,0.2,0.3,0.3,0.3c0.4-0.1,1.2-0.4,1.9-0.4c0.8,0,0.8,0.5,0.7,1.7c0,0-0.6-0.1-1.4-0.1
		C74.9,36.3,73.8,37.5,73.8,39.1 M70.3,41.3c0.8,0,1.9-0.5,2-0.6c0.2-0.1,0.3-0.2,0.2-0.4l-0.2-0.8c0-0.2-0.1-0.3-0.3-0.2
		c-0.2,0.1-0.7,0.4-1.1,0.4c-0.3,0-0.5-0.1-0.4-0.8l0.5-3.9h1.7c0.2,0,0.3-0.2,0.4-0.4l0.1-0.8c0-0.2-0.1-0.4-0.3-0.4h-1.7l0.3-2.1
		c0-0.2-0.1-0.4-0.3-0.4h-1c-0.2,0-0.4,0.2-0.4,0.4l-0.3,2.1h-1c-0.2,0-0.3,0.1-0.4,0.4l-0.1,0.8c0,0.2,0.1,0.4,0.3,0.4h0.9l-0.6,4
		C68.7,40.4,69.1,41.3,70.3,41.3 M59.1,41.1H60c0.3,0,0.4-0.1,0.5-0.4l0.7-4.9c0.1-0.2,0.7-0.9,1.5-0.9c0.3,0,0.7,0.1,0.8,0.1
		c0.1,0.1,0.3,0.1,0.4-0.2l0.4-0.8c0.1-0.2,0.1-0.3,0-0.4c-0.2-0.2-0.6-0.2-1.1-0.2c-1.2,0-1.9,0.9-2.1,1.1l-0.1-0.7
		c0-0.1-0.2-0.3-0.3-0.3h-0.5c-0.2,0-0.3,0.2-0.4,0.4l-0.9,6.8C58.9,40.9,59,41.1,59.1,41.1 M53.1,36.5c0.2-1,1-1.8,2.1-1.8
		c0.6,0,1.1,0.3,1.1,0.8C56.3,36.6,54.3,36.7,53.1,36.5 M51.2,37.9c0,1.9,1,3.4,2.9,3.4c1.1,0,2.1-0.5,2.7-0.9
		c0.2-0.2,0.2-0.3,0.1-0.5l-0.5-0.6c-0.1-0.2-0.2-0.1-0.5,0c-0.5,0.4-1,0.6-1.6,0.6c-1,0-1.7-1-1.6-2c2.1,0.2,5-0.1,5-2.3
		c0-1.4-1.1-2.1-2.5-2.1C52.8,33.3,51.2,35.5,51.2,37.9 M45.8,39.7c-0.9,0-1.5-0.8-1.5-2c0-1.5,1-2.8,2.2-2.8c0.9,0,1.4,0.4,1.4,0.4
		l-0.4,3.2C47.5,38.7,46.7,39.7,45.8,39.7 M45.4,41.3c1.4,0,2.1-0.8,2.3-1l0.1,0.6c0,0.2,0.1,0.3,0.2,0.3h0.5c0.2,0,0.3-0.2,0.4-0.4
		L50.4,30c0-0.2-0.1-0.4-0.3-0.4h-0.9c-0.2,0-0.4,0.1-0.4,0.4l-0.5,3.8c-0.2-0.1-0.8-0.4-1.6-0.4c-2.2,0-3.9,2-3.9,4.6
		C42.7,39.7,43.8,41.3,45.4,41.3 M34.3,40.1c0,0.5,0.3,0.9,0.8,0.9c0.2,0,0.4-0.1,0.6-0.2c0,0.1,0,0.1,0,0.2c0,0.9-0.7,1.8-1.2,2.3
		c-0.1,0.1-0.2,0.2,0,0.3l0.3,0.3c0.1,0.1,0.2,0.1,0.4,0c1.1-1,1.7-2.3,1.7-3.7c0-1-0.5-1.5-1.2-1.5C34.9,38.8,34.3,39.4,34.3,40.1
		 M30.9,41.3c0.8,0,1.9-0.5,2-0.6c0.2-0.1,0.3-0.2,0.2-0.4l-0.2-0.8c0-0.2-0.1-0.3-0.3-0.2c-0.2,0.1-0.7,0.4-1.1,0.4
		c-0.3,0-0.5-0.1-0.4-0.8l0.5-3.9h1.7c0.2,0,0.3-0.2,0.4-0.4l0.1-0.8c0-0.2-0.1-0.4-0.3-0.4h-1.7l0.3-2.1c0-0.2-0.1-0.4-0.3-0.4h-1
		c-0.2,0-0.4,0.2-0.4,0.4l-0.3,2.1h-1c-0.2,0-0.3,0.1-0.4,0.4l-0.1,0.8c0,0.2,0.1,0.4,0.3,0.4H30l-0.6,4
		C29.2,40.4,29.7,41.3,30.9,41.3 M22.9,36.5c0.2-1,1-1.8,2.1-1.8c0.6,0,1.1,0.3,1.1,0.8C26.1,36.6,24.1,36.7,22.9,36.5 M21,37.9
		c0,1.9,1,3.4,2.9,3.4c1.1,0,2.1-0.5,2.7-0.9c0.2-0.2,0.2-0.3,0.1-0.5l-0.5-0.6c-0.1-0.2-0.2-0.1-0.5,0c-0.5,0.4-1,0.6-1.6,0.6
		c-1,0-1.7-1-1.6-2c2.1,0.2,5-0.1,5-2.3c0-1.4-1.1-2.1-2.5-2.1C22.6,33.3,21,35.5,21,37.9 M15.6,39.7c-0.9,0-1.5-0.8-1.5-2
		c0-1.5,1-2.8,2.2-2.8c0.9,0,1.4,0.4,1.4,0.4l-0.4,3.2C17.3,38.7,16.5,39.7,15.6,39.7 M15.2,41.3c1.4,0,2.1-0.8,2.3-1l0.1,0.6
		c0,0.2,0.1,0.3,0.2,0.3h0.5c0.2,0,0.3-0.2,0.4-0.4L20.2,30c0-0.2-0.1-0.4-0.3-0.4H19c-0.2,0-0.4,0.1-0.4,0.4L18,33.8
		c-0.2-0.1-0.8-0.4-1.6-0.4c-2.2,0-3.9,2-3.9,4.6C12.5,39.7,13.6,41.3,15.2,41.3 M0.8,37.5h5.7c0.2,0,0.3-0.1,0.3-0.3l0.1-0.4
		c0-0.2-0.1-0.3-0.2-0.3H0.9c-0.1,0-0.3,0.1-0.3,0.3l-0.1,0.4C0.5,37.4,0.6,37.5,0.8,37.5"/>
	<path class="st0" d="M105.4,20.4c1,0.6,2.7,1.3,4.9,1.3c3.8,0,6.1-2.1,6.1-4.8c0-5.1-6.9-4.3-6.9-6c0-0.4,0.3-0.8,1.3-0.8
		c1,0,1.8,0.3,2.5,0.6c1,0.4,1.7,0.2,2.1-0.7l0.3-0.7c0.4-0.9,0.3-1.7-0.6-2.1c-0.9-0.4-2.3-0.9-4.2-0.9c-3.4,0-6.1,1.6-6.1,4.7
		c0,5.2,6.9,4.4,6.9,6.1c0,0.5-0.3,0.8-1.3,0.8c-1.2,0-2.1-0.5-2.8-0.8c-1-0.5-1.6-0.4-2.2,0.5l-0.4,0.7
		C104.5,19.1,104.6,19.9,105.4,20.4 M93.6,19.8c0,1,0.5,1.6,1.6,1.6H97c1,0,1.6-0.5,1.6-1.6v-4.2c0-2.4,1.1-4.4,3.5-4.4
		c1,0,1.6-0.5,1.6-1.6V8.1c0-1-0.3-1.6-1.3-1.6c-1.9,0-3.4,2-3.9,3.6h-0.1c0,0,0.1-0.4,0.1-0.9V8.2c0-1-0.5-1.6-1.6-1.6h-1.6
		c-1,0-1.6,0.5-1.6,1.6V19.8z M75.8,16.2c0,4.2,2.3,5.5,5.2,5.5c2,0,3.8-1,4.6-2.6h0.1c0,0,0,0.2,0,0.4v0.3c0,1,0.5,1.6,1.5,1.6h1.6
		c1,0,1.6-0.5,1.6-1.6V8.2c0-1-0.5-1.6-1.6-1.6h-1.8c-1,0-1.6,0.5-1.6,1.6v5c0,2.2-1,4.1-3.1,4.1c-1,0-1.6-0.6-1.6-1.9V8.2
		c0-1-0.5-1.6-1.6-1.6h-1.8c-1,0-1.6,0.5-1.6,1.6V16.2z M67.9,21.3c0,1.4-0.9,1.7-1.7,1.8c-0.8,0.1-1.6,0.3-1.6,1.6v1.1
		c0,1,0.5,1.6,1.6,1.6h0.5c1.5,0,6.2-0.9,6.2-5.7V8.2c0-1-0.5-1.6-1.6-1.6h-1.8c-1,0-1.6,0.5-1.6,1.6V21.3z M69.5,4.8h1.7
		c1,0,1.6-0.5,1.6-1.6V2.5c0-1-0.5-1.6-1.6-1.6h-1.7c-1,0-1.6,0.5-1.6,1.6v0.7C67.9,4.2,68.5,4.8,69.5,4.8 M54.1,14
		c0-2.3,1.3-3.5,2.9-3.5c1.9,0,2.9,1.7,2.9,3.5c0,2.6-1.4,3.6-2.9,3.6C55.2,17.7,54.1,16.2,54.1,14 M49.1,14c0,4.6,2.6,7.7,6.7,7.7
		c3,0,4.3-2.2,4.3-2.2h0.1c0,0,0,0.1,0,0.2V20c0,0.9,0.5,1.4,1.6,1.4h1.5c1,0,1.6-0.5,1.6-1.6V2.5c0-1-0.5-1.6-1.6-1.6h-1.8
		c-1,0-1.6,0.5-1.6,1.6v4.6c0,0.4,0,0.7,0,0.7h-0.1c0,0-0.9-1.5-3.9-1.5C51.9,6.3,49.1,9.3,49.1,14 M36,14c0-2.3,1.3-3.5,2.9-3.5
		c2,0,2.9,1.7,2.9,3.5c0,2.6-1.4,3.6-2.9,3.6C37.2,17.7,36,16.2,36,14 M31.1,14c0,4.6,2.6,7.7,6.7,7.7c3,0,4.3-2.2,4.3-2.2H42
		c0,0,0,0.1,0,0.2V20c0,0.9,0.5,1.4,1.6,1.4h1.5c1,0,1.6-0.5,1.6-1.6V2.5c0-1-0.5-1.6-1.6-1.6h-1.8c-1,0-1.6,0.5-1.6,1.6v4.6
		c0,0.4,0,0.7,0,0.7h-0.1c0,0-0.9-1.5-3.9-1.5C33.9,6.3,31.1,9.3,31.1,14 M16.3,24.2L15.9,25c-0.4,0.9-0.2,1.7,0.8,2.1
		c0.6,0.2,1.3,0.4,2.1,0.4c2.4,0,4.9-1.1,6.2-4.4l5.4-14.5c0.4-1.1-0.1-1.8-1.3-1.8H27c-0.9,0-1.5,0.4-1.8,1.3l-1.5,5.5
		c-0.2,0.8-0.5,2.2-0.5,2.2h-0.1c0,0-0.3-1.5-0.5-2.3l-1.7-5.5c-0.3-0.9-0.9-1.3-1.8-1.3h-2.2c-1.2,0-1.7,0.7-1.2,1.8l5.5,12.6
		l-0.3,0.7c-0.3,0.9-1.1,1.6-2,1.6c-0.3,0-0.6-0.1-0.9-0.1C17.3,23.1,16.7,23.3,16.3,24.2 M1.2,19.7c1.1,0.9,3.6,2,6.5,2
		c4.6,0,7.2-3,7.2-6.4c0-6.5-9.1-5.8-9.1-8.7c0-0.8,0.7-1.4,2.2-1.4c1.3,0,2.3,0.5,3.2,0.9c0.8,0.4,1.6,0.6,2.2-0.5l0.7-1.3
		c0.4-0.8,0.3-1.5-0.5-2.2c-1-0.7-3.2-1.5-5.5-1.5C4,0.6,0.8,3.1,0.8,6.9c0,6.4,9.1,6,9.1,8.9c0,0.8-0.7,1.4-2.2,1.4
		c-1.8,0-3.1-0.9-3.7-1.3c-0.9-0.5-1.6-0.5-2.2,0.4l-0.9,1.3C0.2,18.6,0.6,19.2,1.2,19.7"/>
</g>
</svg>
