<svg id="Layer_1" data-name="Layer 1" xmlns="http://www.w3.org/2000/svg" viewBox="0 0 189.59 54.44"><defs><style>.cls-1{fill:#1d1d1b}</style></defs><title>Syddjurs_logo_BW</title><path class="cls-1" d="M23.1 54.29a1.78 1.78 0 0 1-1.44 0C-6.31 41.91.78 3.39.86 3a1.78 1.78 0 0 1 1.49-1.42A157.06 157.06 0 0 1 22.38 0a157 157 0 0 1 20 1.58A1.78 1.78 0 0 1 43.91 3c.09.39 7.17 38.91-20.81 51.29m-.72-21.48a7.6 7.6 0 1 0 0-15.2 4 4 0 1 1 0-8.06 4 4 0 0 1 4 4 1.79 1.79 0 0 0 3.57 0 7.6 7.6 0 0 0-15.2-.08v.08a7.61 7.61 0 0 0 7.6 7.6 4 4 0 1 1 0 8.06 7.6 7.6 0 1 0 7.6 7.6 1.79 1.79 0 0 0-3.57 0 4 4 0 1 1-4-4m0-17.41a1.91 1.91 0 1 0-1.91-1.91 1.91 1.91 0 0 0 1.91 1.91m0 11.63a1.91 1.91 0 1 0-1.91-1.91A1.91 1.91 0 0 0 22.38 27m-10 0a1.91 1.91 0 1 0-1.91-1.91 1.91 1.91 0 0 0 1.9 1.91m10 11.63a1.91 1.91 0 1 0-1.91-1.91 1.91 1.91 0 0 0 1.91 1.91M132.39 40.41a.68.68 0 0 1 .71-.7.67.67 0 0 1 .71.7v2l2.31-2.41a.74.74 0 0 1 .55-.26.69.69 0 0 1 .7.68 1.14 1.14 0 0 1-.46.75l-1.78 1.75 2.18 2.27a1 1 0 0 1 .4.72.66.66 0 0 1-.73.65 1 1 0 0 1-.72-.44l-2.44-2.64v2.4a.68.68 0 0 1-.71.68.66.66 0 0 1-.71-.68v-5.47zM139.77 43.12a3.25 3.25 0 0 1 3.23-3.46 3.3 3.3 0 0 1 3.24 3.47 3.25 3.25 0 1 1-6.48 0m5 0a1.81 1.81 0 1 0-3.54 0c0 1.15.57 2.17 1.77 2.17a1.89 1.89 0 0 0 1.77-2.17M149.41 40.44a1 1 0 0 1 .92-.73 1 1 0 0 1 .94.68l1.11 3.73 1.11-3.73a1 1 0 0 1 .94-.68 1 1 0 0 1 .92.73l.88 5.26a1 1 0 0 1 0 .16.71.71 0 0 1-1.41 0L154.3 42l-1.15 4a.79.79 0 0 1-1.51 0l-1.13-4-.56 3.84a.71.71 0 0 1-1.41 0 1 1 0 0 1 0-.16zM159.68 40.44a1 1 0 0 1 .92-.73 1 1 0 0 1 .94.68l1.11 3.73 1.11-3.73a1 1 0 0 1 .94-.68 1 1 0 0 1 .92.73l.88 5.26a1.13 1.13 0 0 1 0 .16.71.71 0 0 1-1.41 0l-.52-3.86-1.15 4a.79.79 0 0 1-1.51 0l-1.12-4-.56 3.84a.71.71 0 0 1-1.41 0 1 1 0 0 1 0-.16zM169 40.45a.71.71 0 1 1 1.41 0v3.29a1.44 1.44 0 0 0 1.45 1.55 1.48 1.48 0 0 0 1.44-1.55v-3.29a.71.71 0 1 1 1.41 0v3.36a2.86 2.86 0 0 1-5.72 0v-3.36zM177.36 40.45a.68.68 0 0 1 .71-.74.88.88 0 0 1 .59.31l3 4v-3.57a.71.71 0 1 1 1.41 0v5.35a.68.68 0 0 1-.71.74.9.9 0 0 1-.59-.31l-3-3.94v3.51a.71.71 0 1 1-1.41 0v-5.35zM185.76 40.59a.72.72 0 0 1 .74-.82h2.34a.63.63 0 0 1 .67.65.64.64 0 0 1-.67.65h-1.66v1.38h1.55a.64.64 0 0 1 .69.65.65.65 0 0 1-.69.65h-1.55v1.43h1.74a.63.63 0 0 1 .67.65.64.64 0 0 1-.67.65h-2.43a.69.69 0 0 1-.73-.71v-5.18zM61.74 22.26c-2-.77-3.28-1.31-3.28-2.67a2.4 2.4 0 0 1 2.6-2.52c1.39 0 2.32.87 3.39 2a.42.42 0 0 0 .61 0l1.85-1.85a.42.42 0 0 0 0-.55 7.27 7.27 0 0 0-5.75-3c-3.79 0-6.33 2.37-6.33 5.89 0 4 3 5.06 5.36 5.88 2.13.74 3.43 1.27 3.43 2.89 0 2.43-1.68 2.94-3.08 2.94a4.18 4.18 0 0 1-3.31-2.07.42.42 0 0 0-.63-.1l-2 1.68a.42.42 0 0 0 0 .61c1.88 2 3.59 3.24 6.28 3.24a6.2 6.2 0 0 0 6.39-6.28c0-4-3.06-5.2-5.52-6.13M82.95 19.55a.43.43 0 0 0-.29-.23l-2.58-.56a.42.42 0 0 0-.47.23l-3.78 7.94-4.07-8a.42.42 0 0 0-.45-.22l-2.64.45a.42.42 0 0 0-.35.42.42.42 0 0 0 0 .19l5.49 11.14-3.19 6.79-.54 1.13a.42.42 0 0 0 .28.59l2.57.58a.42.42 0 0 0 .48-.23l9-18.77.59-1.09a.42.42 0 0 0 0-.37M99.15 13.66a.42.42 0 0 0-.34-.1l-2.69.44a.42.42 0 0 0-.35.42v5.93a7.83 7.83 0 0 0-4.57-1.62A7.6 7.6 0 0 0 85.73 21a7.86 7.86 0 0 0-2.22 5.69 7.93 7.93 0 0 0 7.68 8 6.91 6.91 0 0 0 4.74-1.83v1.29a.42.42 0 0 0 .48.42l2.52-.34a.42.42 0 0 0 .37-.42V14a.42.42 0 0 0-.15-.32M91.42 31.3a4.59 4.59 0 0 1-4.37-4.56 4.46 4.46 0 0 1 4.26-4.62 4.5 4.5 0 0 1 4.79 4.62 4.38 4.38 0 0 1-4.68 4.56M118.1 13.66a.42.42 0 0 0-.34-.1l-2.69.45a.42.42 0 0 0-.35.42v5.93a7.82 7.82 0 0 0-4.57-1.62 7.6 7.6 0 0 0-5.47 2.26 8.11 8.11 0 0 0 5.46 13.67 6.9 6.9 0 0 0 4.73-1.83v1.29a.42.42 0 0 0 .48.42l2.52-.34a.42.42 0 0 0 .37-.42V14a.42.42 0 0 0-.15-.32m-7.72 17.62a4.59 4.59 0 0 1-4.37-4.56 4.46 4.46 0 0 1 4.26-4.62 4.5 4.5 0 0 1 4.74 4.62 4.37 4.37 0 0 1-4.68 4.56M124.89 17.23a2.06 2.06 0 1 0-2.06-2.06 2.06 2.06 0 0 0 2.06 2.06M126.23 18.75l-2.69.45a.42.42 0 0 0-.35.42v15.19c0 .76-.29 1.76-2.77 1.76h-.87a.42.42 0 0 0-.39.58l1 2.44a.38.38 0 0 0 .33.27l1.16.09c2.56-.06 5.13-1.59 5.13-4.85V19.17a.42.42 0 0 0-.49-.42M144.35 18.85a.43.43 0 0 0-.34-.1l-2.69.45a.42.42 0 0 0-.35.42v7.9c0 2.46-1.34 3.92-3.59 3.92-1.8 0-2.71-.79-2.71-2.35v-9.92a.42.42 0 0 0-.15-.32.43.43 0 0 0-.34-.1l-2.69.45a.42.42 0 0 0-.35.42v9.86c0 3.83 3.1 5.19 6 5.19a5.59 5.59 0 0 0 3.86-1.43v1a.43.43 0 0 0 .15.32.42.42 0 0 0 .34.09l2.63-.45a.42.42 0 0 0 .35-.42V19.17a.42.42 0 0 0-.15-.32M157.92 18.88a.42.42 0 0 0-.35-.19h-1.34a4.78 4.78 0 0 0-4 2.1v-1.62a.42.42 0 0 0-.5-.42l-2.52.45a.42.42 0 0 0-.35.42v14.63a.42.42 0 0 0 .49.42l2.69-.45a.42.42 0 0 0 .35-.42v-6.7a5.28 5.28 0 0 1 1.39-4 3.46 3.46 0 0 1 2.65-.92.42.42 0 0 0 .41-.26l1.16-2.64a.42.42 0 0 0 0-.4M165.28 25c-1.56-.42-2.44-.7-2.44-1.7 0-.36 0-1.32 1.76-1.32a3 3 0 0 1 2.4 1.24.42.42 0 0 0 .62 0l1.6-1.76a.42.42 0 0 0 0-.58 6.2 6.2 0 0 0-4.89-2.11 4.85 4.85 0 0 0-5 4.91c0 3.21 2.37 3.85 4.28 4.36 1.72.46 2.7.78 2.7 2.06 0 1-1.17 1.37-2 1.37a3.24 3.24 0 0 1-2.64-1.47.42.42 0 0 0-.59 0l-1.85 1.57a.42.42 0 0 0-.06.58 6.23 6.23 0 0 0 5.32 2.55 5 5 0 0 0 5.33-4.93c0-3.54-2.62-4.24-4.53-4.75"/></svg>